# xmcd CD database file generated by LOLA_Freedb v0.9beta0
# 
# Track frame offsets:
#      150
#      18635
#      34250
#      50711
#      67868
#      85808
#      107485
#      118869
#      143412
# 
# Disc length: 2175 seconds
# 
# Revision: 0 
# Processed by: cddbd v1.5.2PL0 Copyright (c) Steve Scherf et al.
# Submitted via: LOLA_Freedb v0.9beta0
# 
DISCID=73087d09
DTITLE=John Littlejohn - John Littlejohn's Chicago Blues Stars (Arhoolie LP)
DYEAR=1986
DGENRE=
TTITLE0=John Littlejohn - What In The World You Goin' To Do
TTITLE1=John Littlejohn - Treat Me Wrong
TTITLE2=John Littlejohn - Catfish Blues
TTITLE3=John Littlejohn - Kiddeo
TTITLE4=John Littlejohn - Slidin' Home
TTITLE5=John Littlejohn - Dream
TTITLE6=John Littlejohn - Reelin' And Rockin'
TTITLE7=John Littlejohn - Been Around The World
TTITLE8=John Littlejohn - hake Your Money Maker
EXTD=
EXTT0=
EXTT1=
EXTT2=
EXTT3=
EXTT4=
EXTT5=
EXTT6=
EXTT7=
EXTT8=
PLAYORDER=
